<svg width="35" height="35" viewBox="0 0 35 35" fill="none" xmlns="http://www.w3.org/2000/svg">
<circle cx="17.5" cy="17.5" r="17.5" fill="#FFE5C7"/>
<g clip-path="url(#clip0_95_2240)">
<path d="M15.3635 8.21747C10.9091 8.21747 7.2981 10.6425 7.2981 13.6339C7.2981 15.8337 9.25077 17.7271 12.0555 18.5753V20.6799C12.0555 20.8897 12.325 20.9756 12.4464 20.8045L13.7669 18.9441C14.2961 19.0152 14.8295 19.0507 15.3635 19.0504C19.8179 19.0504 22.9982 16.6254 22.9982 13.6339C22.9982 10.6425 19.8178 8.21747 15.3635 8.21747Z" fill="#FD8087"/>
<path d="M15.3636 8.21747C15.1461 8.21747 14.9307 8.22345 14.7176 8.23478C18.5833 8.44055 21.6813 10.4767 22.0906 13.0527C22.134 13.3264 21.9164 13.5688 21.6397 13.5542C21.4658 13.545 21.2917 13.5404 21.1175 13.5404C17.3808 13.5404 14.3516 15.5747 14.3516 18.0842C14.3516 18.3724 14.392 18.6542 14.4684 18.9276C14.4745 18.958 14.4813 18.9882 14.4881 19.0184C14.7794 19.0397 15.0714 19.0504 15.3636 19.0505C19.818 19.0505 23.4289 16.6254 23.4289 13.634C23.4289 10.6425 19.8179 8.21747 15.3636 8.21747Z" fill="#FE646F"/>
<path d="M21.9356 14.4878C25.6724 14.4878 28.2709 16.5221 28.2709 19.0316C28.2709 20.877 27.0635 22.4654 24.7106 23.1769V24.8336C24.7106 25.0434 24.4411 25.1293 24.3197 24.9582L23.275 23.4863C22.8311 23.5459 22.3836 23.5757 21.9357 23.5755C18.1989 23.5755 15.1697 21.5411 15.1697 19.0316C15.1696 16.5221 18.1989 14.4878 21.9356 14.4878Z" fill="#8AC9FE"/>
<path d="M17.9475 19.9984C17.0522 19.9984 16.2193 20.1774 15.5232 20.4847C16.4257 22.2816 18.9557 23.5755 21.9357 23.5755C22.0496 23.5755 22.1627 23.5735 22.2752 23.5698C22.3357 23.3743 22.3666 23.1709 22.3667 22.9663C22.3667 21.3272 20.3882 19.9984 17.9475 19.9984ZM21.9357 14.4878C21.7178 14.4878 21.5024 14.495 21.2897 14.5085C24.7234 14.727 27.4097 16.6685 27.4097 19.0316C27.4097 20.7533 25.9839 22.2512 23.882 23.0221C23.6031 23.1244 23.4188 23.3915 23.4188 23.6887L24.3198 24.9582C24.4413 25.1293 24.7107 25.0434 24.7107 24.8336V23.1769C27.0636 22.4654 28.7017 20.877 28.7017 19.0316C28.7017 16.5221 25.6725 14.4878 21.9357 14.4878Z" fill="#60B7FF"/>
<path d="M17.5167 20.8597C15.076 20.8597 13.0974 22.1885 13.0974 23.8276C13.0974 25.0329 14.1674 26.0703 15.7042 26.5351V27.6531C15.7042 27.779 15.8659 27.8305 15.9387 27.7279L16.6419 26.7372C16.9319 26.7761 17.2241 26.7956 17.5167 26.7954C19.9574 26.7954 21.5053 25.4667 21.5053 23.8276C21.5053 22.1885 19.9574 20.8597 17.5167 20.8597Z" fill="#FED402"/>
<path d="M17.5168 20.8597C17.3346 20.8597 17.155 20.8673 16.9785 20.8817C19.1653 21.0601 20.8595 22.3109 20.8595 23.8276C20.8595 25.3431 19.1679 26.5932 16.9836 26.7731C17.1585 26.7872 17.3362 26.7954 17.5168 26.7954C19.9575 26.7954 21.9361 25.4667 21.9361 23.8276C21.9361 22.1885 19.9575 20.8597 17.5168 20.8597Z" fill="#FAC600"/>
<path d="M13.0317 13.7342C13.0317 13.6485 12.9977 13.5663 12.9371 13.5058C12.8766 13.4452 12.7944 13.4112 12.7087 13.4112C12.6231 13.4112 12.5409 13.4452 12.4803 13.5058C12.4198 13.5663 12.3857 13.6485 12.3857 13.7342C12.3857 13.8198 12.4198 13.902 12.4803 13.9625C12.5409 14.0231 12.6231 14.0571 12.7087 14.0571C12.7944 14.0571 12.8766 14.0231 12.9371 13.9625C12.9977 13.902 13.0317 13.8198 13.0317 13.7342ZM15.6618 13.7342C15.6618 13.6485 15.6277 13.5663 15.5672 13.5058C15.5066 13.4452 15.4244 13.4112 15.3388 13.4112C15.2531 13.4112 15.171 13.4452 15.1104 13.5058C15.0498 13.5663 15.0158 13.6485 15.0158 13.7342C15.0158 13.8198 15.0498 13.902 15.1104 13.9625C15.171 14.0231 15.2531 14.0571 15.3388 14.0571C15.4244 14.0571 15.5066 14.0231 15.5672 13.9625C15.6277 13.902 15.6618 13.8198 15.6618 13.7342ZM18.2918 13.7342C18.2918 13.6485 18.2578 13.5663 18.1972 13.5058C18.1367 13.4452 18.0545 13.4112 17.9688 13.4112C17.8832 13.4112 17.801 13.4452 17.7404 13.5058C17.6799 13.5663 17.6458 13.6485 17.6458 13.7342C17.6458 13.8198 17.6799 13.902 17.7404 13.9625C17.801 14.0231 17.8832 14.0571 17.9688 14.0571C18.0545 14.0571 18.1367 14.0231 18.1972 13.9625C18.2578 13.902 18.2918 13.8198 18.2918 13.7342ZM19.3889 19.3524C19.3889 19.4381 19.423 19.5203 19.4835 19.5808C19.5441 19.6414 19.6263 19.6754 19.7119 19.6754C19.7976 19.6754 19.8797 19.6414 19.9403 19.5808C20.0009 19.5203 20.0349 19.4381 20.0349 19.3524C20.0349 19.2668 20.0009 19.1846 19.9403 19.124C19.8797 19.0635 19.7976 19.0294 19.7119 19.0294C19.6263 19.0294 19.5441 19.0635 19.4835 19.124C19.423 19.1846 19.3889 19.2668 19.3889 19.3524ZM21.5884 19.3524C21.5884 19.4381 21.6224 19.5203 21.683 19.5808C21.7435 19.6414 21.8257 19.6754 21.9114 19.6754C21.997 19.6754 22.0792 19.6414 22.1397 19.5808C22.2003 19.5203 22.2343 19.4381 22.2343 19.3524C22.2343 19.2668 22.2003 19.1846 22.1397 19.124C22.0792 19.0635 21.997 19.0294 21.9114 19.0294C21.8257 19.0294 21.7435 19.0635 21.683 19.124C21.6224 19.1846 21.5884 19.2668 21.5884 19.3524ZM23.7878 19.3524C23.7878 19.4381 23.8218 19.5203 23.8824 19.5808C23.9429 19.6414 24.0251 19.6754 24.1108 19.6754C24.1964 19.6754 24.2786 19.6414 24.3391 19.5808C24.3997 19.5203 24.4337 19.4381 24.4337 19.3524C24.4337 19.2668 24.3997 19.1846 24.3391 19.124C24.2786 19.0635 24.1964 19.0294 24.1108 19.0294C24.0251 19.0294 23.9429 19.0635 23.8824 19.124C23.8218 19.1846 23.7878 19.2668 23.7878 19.3524ZM15.4003 24.1361C15.4003 24.2217 15.4344 24.3039 15.4949 24.3645C15.5555 24.425 15.6377 24.4591 15.7233 24.4591C15.809 24.4591 15.8911 24.425 15.9517 24.3645C16.0123 24.3039 16.0463 24.2217 16.0463 24.1361C16.0463 24.0504 16.0123 23.9682 15.9517 23.9077C15.8911 23.8471 15.809 23.8131 15.7233 23.8131C15.6377 23.8131 15.5555 23.8471 15.4949 23.9077C15.4344 23.9682 15.4003 24.0504 15.4003 24.1361ZM17.1691 24.1361C17.1691 24.2217 17.2031 24.3039 17.2637 24.3645C17.3242 24.425 17.4064 24.4591 17.4921 24.4591C17.5777 24.4591 17.6599 24.425 17.7204 24.3645C17.781 24.3039 17.8151 24.2217 17.8151 24.1361C17.8151 24.0504 17.781 23.9682 17.7204 23.9077C17.6599 23.8471 17.5777 23.8131 17.4921 23.8131C17.4064 23.8131 17.3242 23.8471 17.2637 23.9077C17.2031 23.9682 17.1691 24.0504 17.1691 24.1361ZM19.5838 24.1361C19.5838 24.0504 19.5498 23.9682 19.4892 23.9077C19.4286 23.8471 19.3465 23.8131 19.2608 23.8131C19.1751 23.8131 19.093 23.8471 19.0324 23.9077C18.9718 23.9682 18.9378 24.0504 18.9378 24.1361C18.9378 24.2217 18.9718 24.3039 19.0324 24.3645C19.093 24.425 19.1751 24.4591 19.2608 24.4591C19.3465 24.4591 19.4286 24.425 19.4892 24.3645C19.5498 24.3039 19.5838 24.2217 19.5838 24.1361Z" fill="black"/>
<path d="M26.5274 15.3319C26.4908 15.3104 26.4503 15.2964 26.4083 15.2905C26.3663 15.2847 26.3236 15.2871 26.2825 15.2978C26.2415 15.3085 26.2029 15.3271 26.1691 15.3527C26.1352 15.3783 26.1067 15.4102 26.0853 15.4468C26.0638 15.4834 26.0497 15.5238 26.0438 15.5659C26.038 15.6079 26.0405 15.6506 26.0511 15.6917C26.0618 15.7327 26.0805 15.7713 26.106 15.8051C26.1316 15.839 26.1636 15.8674 26.2002 15.8889C27.5689 16.693 28.3539 17.8385 28.3539 19.0316C28.3539 20.671 26.8775 22.1767 24.5925 22.8677C24.5261 22.8878 24.468 22.9287 24.4266 22.9843C24.3853 23.04 24.363 23.1075 24.363 23.1769V24.4959L23.5137 23.2993C23.4796 23.2513 23.4331 23.2135 23.379 23.19C23.325 23.1665 23.2656 23.1583 23.2072 23.1662C22.8609 23.2127 22.5123 23.2404 22.1629 23.2492C22.1033 23.0106 22.0065 22.7794 21.8749 22.5586C21.8317 22.4861 21.7852 22.4155 21.7357 22.3471C21.1236 21.4932 19.9971 20.8621 18.6376 20.6322C17.7665 20.4844 16.8597 20.505 15.998 20.7018C15.6494 20.1782 15.4716 19.6228 15.4683 19.0479L15.4683 19.0464L15.4679 19.0316C15.4679 16.7042 18.3582 14.8107 21.9109 14.8107C22.1138 14.8107 22.3169 14.8173 22.5194 14.8299C23.3797 14.8838 24.2194 15.0513 24.9774 15.3223C25.0173 15.3366 25.0597 15.3429 25.1021 15.3408C25.1445 15.3387 25.186 15.3283 25.2244 15.3102C25.2627 15.292 25.2971 15.2665 25.3256 15.2351C25.3541 15.2036 25.3761 15.1669 25.3904 15.1269C25.4047 15.087 25.4109 15.0446 25.4089 15.0023C25.4068 14.9599 25.3963 14.9183 25.3782 14.88C25.36 14.8416 25.3345 14.8073 25.3031 14.7788C25.2716 14.7503 25.2349 14.7283 25.1949 14.714C24.7117 14.5412 24.1982 14.4081 23.6682 14.3159C23.7071 14.0907 23.7268 13.8625 23.727 13.6339C23.727 12.0761 22.8373 10.6207 21.2218 9.53574C19.6459 8.47736 17.5566 7.89447 15.3388 7.89447C11.0658 7.89447 7.48277 10.0798 7.00432 12.9777C6.99741 13.0195 6.9988 13.0623 7.00843 13.1036C7.01806 13.1449 7.03574 13.1839 7.06044 13.2184C7.08515 13.2529 7.1164 13.2822 7.15242 13.3046C7.18845 13.327 7.22853 13.3421 7.27038 13.349C7.31223 13.3559 7.35503 13.3545 7.39634 13.3449C7.43766 13.3353 7.47667 13.3176 7.51115 13.2929C7.54563 13.2682 7.5749 13.2369 7.59729 13.2009C7.61968 13.1649 7.63475 13.1248 7.64164 13.0829C7.84336 11.8615 8.71966 10.7258 10.1093 9.885C11.5422 9.01796 13.3995 8.5405 15.3388 8.5405C19.608 8.5405 23.0812 10.8254 23.0812 13.634C23.0811 13.832 23.0636 14.0297 23.029 14.2247C22.6582 14.1847 22.284 14.1648 21.911 14.1648C20.0403 14.1648 18.2773 14.657 16.9467 15.5506C15.8629 16.2784 14.9588 17.376 14.8364 18.7167C14.4848 18.7018 14.1342 18.6709 13.7855 18.6241C13.7271 18.6162 13.6676 18.6244 13.6136 18.6479C13.5595 18.6713 13.513 18.7092 13.4789 18.7572L12.3539 20.3422V18.5754C12.3539 18.506 12.3316 18.4385 12.2903 18.3828C12.2489 18.3272 12.1908 18.2863 12.1244 18.2662C10.9521 17.9117 9.92084 17.3629 9.142 16.6791C8.36812 15.9997 7.86158 15.2006 7.67704 14.3682C7.66788 14.3267 7.65065 14.2875 7.62633 14.2528C7.60201 14.218 7.57108 14.1884 7.5353 14.1656C7.49953 14.1428 7.45961 14.1273 7.41783 14.1199C7.37605 14.1125 7.33324 14.1135 7.29182 14.1227C7.25041 14.1319 7.21121 14.1491 7.17647 14.1734C7.14172 14.1978 7.11211 14.2287 7.08931 14.2645C7.06652 14.3002 7.051 14.3401 7.04364 14.3819C7.03627 14.4237 7.03721 14.4665 7.04639 14.5079C7.26077 15.4753 7.83807 16.394 8.71583 17.1646C9.51163 17.8633 10.5422 18.4302 11.708 18.8122V20.68C11.708 20.9153 11.8586 21.1214 12.0828 21.1928C12.1916 21.2278 12.3087 21.2272 12.417 21.191C12.5254 21.1548 12.6194 21.0849 12.6853 20.9915L13.8937 19.2889C14.2078 19.3258 14.5232 19.3506 14.8392 19.3632C14.891 19.8876 15.065 20.4041 15.3525 20.8871C14.9288 21.0349 14.5357 21.2269 14.1872 21.4609C13.2604 22.0834 12.7499 22.9239 12.7499 23.8277C12.7499 25.0801 13.7649 26.2162 15.3567 26.7698V27.6532C15.3567 27.8508 15.4832 28.024 15.6714 28.084C15.7628 28.1134 15.8612 28.1129 15.9522 28.0825C16.0433 28.052 16.1222 27.9933 16.1776 27.9149L16.7696 27.0808C17.3502 27.1419 17.9517 27.1282 18.5214 27.0415C18.6061 27.0286 18.6822 26.9826 18.733 26.9137C18.7837 26.8447 18.805 26.7583 18.7922 26.6736C18.7653 26.4972 18.6 26.3759 18.4243 26.4029C17.8509 26.4901 17.2394 26.4953 16.6605 26.4172C16.6022 26.4093 16.5427 26.4175 16.4887 26.441C16.4346 26.4645 16.388 26.5023 16.354 26.5503L16.0026 27.0454V26.5352C16.0026 26.4658 15.9803 26.3983 15.939 26.3427C15.8977 26.287 15.8395 26.2461 15.7731 26.226C14.329 25.7893 13.3959 24.8479 13.3959 23.8277C13.3959 23.1459 13.8048 22.4959 14.5474 21.9972C14.9496 21.7271 15.422 21.5199 15.9376 21.3819C16.5798 21.2265 17.2258 21.1542 17.8867 21.1952C18.7798 21.2517 19.5969 21.4979 20.2352 21.8713C20.9361 22.2837 21.5884 22.964 21.5884 23.8277C21.5884 24.724 20.8842 25.5544 19.7047 26.049C19.6262 26.0825 19.5641 26.1457 19.532 26.2247C19.5 26.3038 19.5005 26.3923 19.5335 26.471C19.5665 26.5497 19.6293 26.6122 19.7081 26.6447C19.787 26.6773 19.8756 26.6773 19.9545 26.6447C21.3555 26.0572 22.2019 25.0319 22.2329 23.8925C22.5233 23.8834 22.8131 23.8636 23.0988 23.8308L24.0318 25.1452C24.0976 25.2386 24.1916 25.3084 24.3 25.3446C24.4084 25.3808 24.5255 25.3815 24.6342 25.3465C24.7432 25.312 24.8383 25.2437 24.9057 25.1515C24.9731 25.0592 25.0093 24.9478 25.009 24.8336V23.4132C27.4419 22.6051 29 20.9041 29 19.0316C28.9999 17.6035 28.0987 16.255 26.5274 15.3319Z" fill="black"/>
</g>
<defs>
<clipPath id="clip0_95_2240">
<rect width="22" height="22" fill="white" transform="translate(7 7)"/>
</clipPath>
</defs>
</svg>
